<svg xmlns="http://www.w3.org/2000/svg" width="24" height="24" viewBox="0 0 24 24">
    <path d="M21.7 20.3l-4.2-4.2c-0.2-0.2-0.4-0.4-0.7-0.4 0.9-1.2 1.4-2.7 1.4-4.3 0-4.6-3.8-8.4-8.4-8.4s-8.4 3.8-8.4 8.4 3.8 8.4 8.4 8.4c1.6 0 3.1-0.5 4.3-1.4 0 0 0 0 0 0 0 0 0 0 0 0 0.1 0.3 0.2 0.6 0.4 0.7l4.2 4.2c0.4 0.4 1 0.4 1.4 0s0.4-1 0-1.4zM16.4 16.4c-1.4 1.4-3.3 2.2-5.3 2.2s-3.9-0.8-5.3-2.2c-2.9-2.9-2.9-7.6 0-10.6 1.4-1.4 3.3-2.2 5.3-2.2s3.9 0.8 5.3 2.2c1.4 1.4 2.2 3.3 2.2 5.3s-0.8 3.9-2.2 5.3z"></path>
</svg>
